<?xml version="1.0" standalone="no"?>
<!DOCTYPE svg PUBLIC "-//W3C//DTD SVG 20010904//EN"
 "http://www.w3.org/TR/2001/REC-SVG-20010904/DTD/svg10.dtd">
<svg version="1.0" xmlns="http://www.w3.org/2000/svg"
 width="1568.000000pt" height="510.000000pt" viewBox="0 0 1568.000000 510.000000"
 preserveAspectRatio="xMidYMid meet">

<g transform="translate(0.000000,510.000000) scale(0.100000,-0.100000)"
fill="#000000" stroke="none">
<path d="M8762 2728 l3 -1983 438 -3 437 -2 0 1985 0 1985 -440 0 -440 0 2
-1982z"/>
<path d="M7040 3578 c-118 -9 -270 -59 -270 -89 0 -6 21 -34 46 -62 63 -71
128 -209 154 -332 18 -84 21 -130 20 -290 -1 -104 -1 -196 -1 -202 1 -7 18
-32 39 -55 61 -68 169 -106 221 -78 24 13 130 168 174 255 97 194 140 349 141
515 1 173 -13 199 -149 267 -125 63 -229 83 -375 71z"/>
<path d="M6362 3491 c-104 -26 -208 -81 -285 -151 -63 -58 -147 -169 -147
-195 0 -7 30 -20 68 -30 211 -55 397 -208 578 -476 43 -65 80 -109 98 -118 48
-23 149 -26 200 -7 77 30 80 36 73 193 -9 198 -46 348 -131 528 -51 106 -120
202 -178 244 -39 29 -48 31 -122 30 -45 0 -114 -9 -154 -18z"/>
<path d="M7703 3314 c-3 -8 -3 -37 1 -63 8 -64 -8 -174 -39 -262 -45 -129
-123 -254 -259 -413 -74 -86 -76 -90 -76 -141 0 -90 56 -186 118 -202 62 -15
355 114 512 226 140 100 253 216 297 306 36 71 36 89 3 168 -86 205 -287 359
-513 391 -28 4 -40 1 -44 -10z"/>
<path d="M1288 3165 c-297 -42 -538 -161 -726 -359 -152 -161 -252 -360 -298
-596 -24 -128 -25 -405 0 -540 119 -656 668 -1030 1461 -995 441 20 739 109
922 278 l41 38 -156 248 c-86 137 -164 259 -172 271 l-16 23 -54 -42 c-99 -75
-258 -138 -419 -166 -107 -19 -306 -19 -396 0 -203 43 -358 182 -394 353 -6
29 -11 55 -11 57 0 3 386 6 858 7 l857 3 3 155 c8 418 -91 713 -318 941 -161
163 -367 267 -626 314 -123 23 -430 28 -556 10z m422 -600 c134 -53 231 -178
253 -327 l6 -38 -440 0 c-345 0 -439 3 -439 13 0 26 28 114 49 155 49 96 148
174 260 204 85 23 245 19 311 -7z"/>
<path d="M13792 3168 c-410 -51 -745 -272 -920 -606 -103 -196 -142 -369 -142
-623 0 -243 40 -430 129 -607 173 -342 482 -555 920 -634 93 -16 158 -21 326
-21 494 -1 800 83 1034 281 l35 30 -168 268 c-93 148 -169 270 -171 272 -1 2
-40 -22 -85 -52 -158 -106 -326 -156 -550 -163 -184 -6 -274 8 -387 62 -132
64 -237 198 -251 321 l-5 44 855 0 855 0 7 38 c9 56 7 204 -4 327 -26 277
-119 516 -271 695 -125 147 -341 273 -564 331 -174 45 -453 61 -643 37z m410
-607 c63 -24 147 -94 184 -152 28 -44 64 -148 64 -184 l0 -25 -436 0 -437 0 7
47 c9 69 58 165 109 217 51 50 127 93 202 113 75 19 236 11 307 -16z"/>
<path d="M2642 3093 c3 -10 118 -286 256 -613 138 -327 358 -851 490 -1165
l240 -570 514 -3 515 -2 82 197 c46 109 171 407 278 663 107 256 253 605 325
775 71 171 140 335 153 365 30 69 134 318 146 348 l9 22 -468 0 -467 0 -72
-198 c-39 -108 -155 -426 -258 -707 -103 -280 -198 -543 -212 -583 -14 -40
-28 -71 -31 -67 -3 3 -132 353 -286 778 l-281 772 -469 3 c-443 2 -468 1 -464
-15z"/>
<path d="M9820 3106 c0 -2 11 -28 24 -57 13 -30 90 -210 170 -401 80 -192 212
-504 292 -695 81 -192 175 -415 209 -498 195 -462 287 -680 296 -696 9 -18 30
-19 522 -17 l511 3 74 175 c79 187 359 856 422 1005 95 229 422 1009 454 1083
20 46 36 88 36 93 0 5 -191 9 -464 9 l-464 0 -50 -137 c-103 -278 -500 -1369
-506 -1390 -4 -13 -11 -23 -15 -23 -4 0 -128 332 -276 738 -147 405 -274 754
-282 775 l-15 37 -469 0 c-258 0 -469 -2 -469 -4z"/>
<path d="M5857 3018 c-38 -30 -49 -134 -22 -225 l15 -50 90 -33 c164 -58 269
-127 383 -250 l57 -63 69 5 c78 6 122 27 147 73 16 30 15 33 -4 71 -64 125
-254 302 -430 401 -126 71 -263 102 -305 71z"/>
<path d="M8276 2629 c-40 -71 -146 -181 -227 -235 -95 -63 -233 -125 -374
-169 -158 -48 -163 -51 -198 -114 -39 -68 -43 -154 -11 -197 58 -78 494 -115
749 -64 129 25 238 68 289 113 31 27 39 43 51 102 30 143 9 292 -57 418 -35
66 -154 197 -178 197 -8 0 -28 -23 -44 -51z"/>
<path d="M5930 2618 c-22 -37 -56 -134 -66 -192 -7 -39 -7 -39 22 -32 16 4 37
9 46 12 13 4 23 -7 40 -43 31 -66 55 -68 112 -9 49 51 106 133 106 152 0 46
-138 144 -203 144 -31 0 -40 -5 -57 -32z"/>
<path d="M6964 2436 c-8 -21 11 -50 56 -86 22 -17 40 -35 40 -40 0 -5 -25 -44
-55 -88 -57 -83 -71 -121 -37 -103 22 12 182 195 182 209 0 18 -44 65 -89 93
-49 31 -88 37 -97 15z"/>
<path d="M6827 2423 c-17 -17 -3 -45 44 -86 l51 -45 -61 -89 c-33 -50 -61 -93
-61 -96 0 -21 33 -1 76 46 82 88 134 149 134 157 0 16 -42 60 -87 89 -44 29
-82 39 -96 24z"/>
<path d="M6698 2413 c-37 -9 -29 -36 26 -89 l55 -51 -59 -88 c-63 -92 -69
-105 -46 -105 13 0 186 187 194 209 4 13 -79 91 -117 110 -20 10 -43 16 -53
14z"/>
<path d="M5926 1850 c-94 -30 -184 -102 -226 -181 -42 -79 -50 -242 -16 -323
23 -54 44 -60 118 -32 170 63 499 254 569 329 28 30 18 63 -32 109 -74 68
-205 118 -304 117 -27 0 -77 -9 -109 -19z"/>
<path d="M7518 1836 c-97 -34 -168 -109 -168 -178 0 -37 7 -47 93 -132 106
-106 196 -175 316 -243 164 -93 315 -145 432 -146 78 -1 98 9 179 94 111 115
161 230 168 385 4 103 -11 214 -30 214 -5 0 -41 -14 -80 -31 -112 -49 -192
-62 -358 -56 -152 5 -263 25 -415 73 -44 14 -85 27 -90 29 -6 1 -27 -3 -47 -9z"/>
<path d="M6321 1555 c-145 -91 -220 -146 -336 -246 -148 -127 -146 -125 -146
-200 0 -75 18 -131 61 -194 95 -138 333 -231 503 -196 l57 12 0 114 c0 136 16
224 82 454 40 139 49 186 45 225 -6 68 -38 96 -110 96 -47 0 -63 -7 -156 -65z"/>
<path d="M7140 1551 c-47 -15 -89 -41 -102 -64 -14 -26 -12 -66 9 -172 59
-302 263 -643 428 -716 39 -17 52 -18 111 -9 222 36 403 163 494 346 48 98 49
95 -60 115 -155 28 -270 81 -403 188 -74 60 -195 182 -256 258 -22 28 -47 47
-70 53 -41 11 -115 12 -151 1z"/>
<path d="M6707 1519 c-32 -13 -69 -79 -115 -211 -95 -269 -101 -621 -13 -760
25 -39 38 -48 98 -71 107 -39 182 -51 291 -44 143 8 278 57 366 131 l39 32
-60 47 c-175 135 -293 387 -329 705 -5 46 -14 72 -32 93 -52 63 -180 103 -245
78z"/>
</g>
</svg>
